<svg width="802" height="802" viewBox="0 0 802 802" fill="none" xmlns="http://www.w3.org/2000/svg">
<g clip-path="url(#clip0_298_186)">
<path d="M614.031 0H187.969C84.1565 0 0 84.1565 0 187.969V614.031C0 717.844 84.1565 802 187.969 802H614.031C717.844 802 802 717.844 802 614.031V187.969C802 84.1565 717.844 0 614.031 0Z" fill="#5865F2"/>
<mask id="mask0_298_186" style="mask-type:luminance" maskUnits="userSpaceOnUse" x="87" y="159" width="628" height="487">
<path d="M87.7188 159.773H714.281V645.14H87.7188V159.773Z" fill="white"/>
</mask>
<g mask="url(#mask0_298_186)">
<path d="M618.129 202.997C577.508 184.35 534.639 171.053 490.595 163.439C490.195 163.365 489.782 163.419 489.414 163.593C489.046 163.767 488.743 164.053 488.547 164.41C483.039 174.203 476.936 186.985 472.666 197.029C424.506 189.817 376.595 189.817 329.425 197.029C325.152 186.759 318.829 174.203 313.297 164.41C313.092 164.061 312.787 163.781 312.421 163.608C312.055 163.435 311.645 163.376 311.245 163.439C267.198 171.037 224.327 184.335 183.711 202.997C183.364 203.144 183.07 203.396 182.872 203.717C101.644 325.07 79.3949 443.44 90.3096 560.344C90.34 560.631 90.4278 560.908 90.5677 561.16C90.7077 561.412 90.8969 561.633 91.1242 561.81C144.714 601.168 196.628 625.062 247.577 640.898C247.973 641.017 248.396 641.011 248.789 640.882C249.182 640.753 249.527 640.508 249.776 640.178C261.828 623.718 272.57 606.365 281.784 588.117C281.911 587.867 281.983 587.593 281.997 587.313C282.01 587.033 281.964 586.753 281.861 586.492C281.758 586.231 281.601 585.995 281.401 585.8C281.2 585.604 280.96 585.453 280.697 585.357C263.654 578.891 247.43 571.011 231.822 562.061C231.538 561.894 231.299 561.659 231.127 561.377C230.955 561.096 230.854 560.776 230.835 560.447C230.815 560.118 230.877 559.789 231.015 559.489C231.153 559.189 231.362 558.928 231.625 558.728C234.917 556.266 238.153 553.73 241.33 551.121C241.608 550.891 241.945 550.744 242.303 550.695C242.66 550.646 243.024 550.698 243.354 550.846C345.897 597.662 456.908 597.662 558.239 550.846C558.57 550.689 558.938 550.629 559.301 550.674C559.665 550.718 560.008 550.864 560.291 551.096C563.471 553.72 566.715 556.265 570.022 558.728C570.285 558.926 570.496 559.185 570.636 559.484C570.776 559.783 570.84 560.111 570.823 560.44C570.806 560.77 570.708 561.09 570.538 561.372C570.369 561.655 570.132 561.891 569.849 562.061C554.233 571.179 537.875 578.964 520.949 585.332C520.686 585.432 520.448 585.587 520.249 585.786C520.05 585.985 519.895 586.224 519.795 586.487C519.695 586.749 519.651 587.03 519.667 587.311C519.683 587.592 519.758 587.867 519.887 588.117C529.26 606.221 539.949 623.613 551.867 640.153C552.11 640.491 552.452 640.745 552.847 640.879C553.241 641.013 553.668 641.019 554.066 640.898C605.263 625.062 657.176 601.168 710.769 561.81C710.999 561.641 711.19 561.425 711.331 561.177C711.471 560.929 711.557 560.653 711.584 560.369C724.648 425.217 689.701 307.815 618.944 203.742C618.77 203.404 618.481 203.14 618.129 202.997ZM297.097 489.164C266.223 489.164 240.785 460.821 240.785 426.012C240.785 391.204 265.731 362.861 297.097 362.861C328.707 362.861 353.898 391.454 353.403 426.012C353.403 460.821 328.46 489.164 297.097 489.164ZM505.291 489.164C474.417 489.164 448.982 460.821 448.982 426.012C448.982 391.204 473.926 362.861 505.291 362.861C536.901 362.861 562.092 391.454 561.601 426.012C561.601 460.821 536.901 489.164 505.291 489.164Z" fill="white"/>
</g>
</g>
<defs>
<clipPath id="clip0_298_186">
<rect width="802" height="802" fill="white"/>
</clipPath>
</defs>
</svg>
