<svg width="802" height="803" viewBox="0 0 802 803" fill="none" xmlns="http://www.w3.org/2000/svg">
<path d="M614.031 0H187.969C84.1565 0 0 84.1565 0 187.969V614.031C0 717.844 84.1565 802 187.969 802H614.031C717.844 802 802 717.844 802 614.031V187.969C802 84.1565 717.844 0 614.031 0Z" fill="#1877F2"/>
<path d="M549.565 522.273L567.344 406.359H456.129V331.141C456.129 299.424 471.665 268.516 521.479 268.516H572.043V169.832C572.043 169.832 526.154 162 482.278 162C390.684 162 330.816 217.513 330.816 318.014V406.359H229V522.273H330.816V802.488H395.473H456.129V522.273H549.565Z" fill="white"/>
</svg>
