<svg width="802" height="802" viewBox="0 0 802 802" fill="none" xmlns="http://www.w3.org/2000/svg">
<g clip-path="url(#clip0_298_194)">
<path d="M614.031 0H187.969C84.1565 0 0 84.1565 0 187.969V614.031C0 717.844 84.1565 802 187.969 802H614.031C717.844 802 802 717.844 802 614.031V187.969C802 84.1565 717.844 0 614.031 0Z" fill="#F4F2ED"/>
<path d="M130.438 636.083H230.118V394.001L87.7188 287.204V593.364C87.7188 617.001 106.873 636.083 130.438 636.083Z" fill="#4285F4"/>
<path d="M571.879 636.083H671.562C695.199 636.083 714.281 616.929 714.281 593.364V287.201L571.879 394.001" fill="#34A853"/>
<path d="M571.879 208.88V394.001L714.281 287.204V230.237C714.281 177.408 653.974 147.289 611.753 178.974" fill="#FBBC04"/>
<path d="M230.121 394.001V208.883L401 337.037L571.88 208.877V393.998L401 522.162" fill="#EA4335"/>
<path d="M87.7188 230.24V287.201L230.118 394.001V208.883L190.246 178.978C147.953 147.292 87.7188 177.411 87.7188 230.24Z" fill="#C5221F"/>
</g>
<defs>
<clipPath id="clip0_298_194">
<rect width="802" height="802" fill="white"/>
</clipPath>
</defs>
</svg>
