<svg width="802" height="802" viewBox="0 0 802 802" fill="none" xmlns="http://www.w3.org/2000/svg">
<g clip-path="url(#clip0_298_169)">
<path d="M614.031 0H187.969C84.1565 0 0 84.1565 0 187.969V614.031C0 717.844 84.1565 802 187.969 802H614.031C717.844 802 802 717.844 802 614.031V187.969C802 84.1565 717.844 0 614.031 0Z" fill="url(#paint0_radial_298_169)"/>
<path d="M614.031 0H187.969C84.1565 0 0 84.1565 0 187.969V614.031C0 717.844 84.1565 802 187.969 802H614.031C717.844 802 802 717.844 802 614.031V187.969C802 84.1565 717.844 0 614.031 0Z" fill="url(#paint1_radial_298_169)"/>
<path d="M401.028 87.7188C315.947 87.7188 305.268 88.0916 271.853 89.611C238.501 91.1398 215.735 96.4186 195.816 104.166C175.209 112.167 157.731 122.872 140.319 140.29C122.891 157.706 112.186 175.184 104.16 195.782C96.3904 215.707 91.1053 238.482 89.6047 271.818C88.1103 305.236 87.7188 315.919 87.7188 401.003C87.7188 486.087 88.0947 496.733 89.611 530.147C91.146 563.499 96.4248 586.265 104.166 606.184C112.173 626.791 122.878 644.269 140.297 661.681C157.706 679.109 175.184 689.839 195.776 697.84C215.71 705.588 238.479 710.867 271.825 712.395C305.242 713.915 315.913 714.288 400.991 714.288C486.081 714.288 496.726 713.915 530.141 712.395C563.493 710.867 586.284 705.588 606.218 697.84C626.816 689.839 644.269 679.109 661.675 661.681C679.103 644.269 689.805 626.791 697.834 606.193C705.534 586.265 710.823 563.493 712.389 530.153C713.89 496.739 714.281 486.087 714.281 401.003C714.281 315.919 713.89 305.242 712.389 271.825C710.823 238.473 705.534 215.71 697.834 195.791C689.805 175.184 679.103 157.706 661.675 140.29C644.25 122.866 626.823 112.161 606.199 104.169C586.228 96.4186 563.449 91.1366 530.097 89.611C496.679 88.0916 486.04 87.7188 400.931 87.7188H401.028ZM372.924 144.175C381.266 144.163 390.574 144.175 401.028 144.175C484.677 144.175 494.59 144.476 527.622 145.977C558.167 147.374 574.746 152.477 585.789 156.766C600.41 162.443 610.833 169.231 621.791 180.199C632.756 191.164 639.542 201.606 645.234 216.227C649.523 227.254 654.633 243.833 656.023 274.378C657.524 307.404 657.85 317.323 657.85 400.931C657.85 484.54 657.524 494.461 656.023 527.484C654.626 558.029 649.523 574.608 645.234 585.639C639.557 600.259 632.756 610.67 621.791 621.628C610.826 632.593 600.416 639.379 585.789 645.059C574.758 649.366 558.167 654.457 527.622 655.854C494.596 657.355 484.677 657.681 401.028 657.681C317.376 657.681 307.46 657.355 274.438 655.854C243.893 654.445 227.314 649.341 216.261 645.052C201.643 639.373 191.199 632.587 180.234 621.622C169.269 610.657 162.483 600.241 156.791 585.614C152.502 574.583 147.393 558.004 146.002 527.459C144.501 494.433 144.2 484.515 144.2 400.853C144.2 317.194 144.501 307.326 146.002 274.3C147.399 243.755 152.502 227.176 156.791 216.133C162.471 201.512 169.269 191.07 180.237 180.105C191.202 169.141 201.643 162.352 216.264 156.663C227.307 152.355 243.893 147.264 274.438 145.861C303.338 144.554 314.538 144.163 372.924 144.097V144.175ZM568.258 196.192C547.503 196.192 530.664 213.016 530.664 233.774C530.664 254.529 547.503 271.367 568.258 271.367C589.013 271.367 605.852 254.529 605.852 233.774C605.852 213.019 589.013 196.18 568.258 196.18V196.192ZM401.028 240.118C312.182 240.118 240.146 312.153 240.146 401.003C240.146 489.853 312.182 561.854 401.028 561.854C489.878 561.854 561.889 489.853 561.889 401.003C561.889 312.157 489.872 240.118 401.022 240.118H401.028ZM401.028 296.574C458.7 296.574 505.457 343.325 505.457 401.003C505.457 458.675 458.7 505.432 401.028 505.432C343.353 505.432 296.602 458.675 296.602 401.003C296.602 343.325 343.353 296.574 401.028 296.574Z" fill="white"/>
</g>
<defs>
<radialGradient id="paint0_radial_298_169" cx="0" cy="0" r="1" gradientUnits="userSpaceOnUse" gradientTransform="translate(213.031 863.77) rotate(-90) scale(794.842 739.265)">
<stop stop-color="#FFDD55"/>
<stop offset="0.1" stop-color="#FFDD55"/>
<stop offset="0.5" stop-color="#FF543E"/>
<stop offset="1" stop-color="#C837AB"/>
</radialGradient>
<radialGradient id="paint1_radial_298_169" cx="0" cy="0" r="1" gradientUnits="userSpaceOnUse" gradientTransform="translate(-134.338 57.7722) rotate(78.681) scale(355.299 1464.55)">
<stop stop-color="#3771C8"/>
<stop offset="0.128" stop-color="#3771C8"/>
<stop offset="1" stop-color="#6600FF" stop-opacity="0"/>
</radialGradient>
<clipPath id="clip0_298_169">
<rect width="802" height="802" fill="white"/>
</clipPath>
</defs>
</svg>
