<svg width="802" height="802" viewBox="0 0 802 802" fill="none" xmlns="http://www.w3.org/2000/svg">
<path d="M301.519 709.436L245.713 615.401L139.581 592.511L150.007 483.004L78.3955 401L150.041 318.995L139.581 209.523L245.746 186.632L301.519 92.5642L401 134.569L500.481 92.5308L556.287 186.632L662.419 209.489L651.993 318.995L723.638 401L652.059 483.004L662.452 592.511L556.287 615.368L500.515 709.469L401 667.431L301.519 709.436ZM315.788 666.662L401 631.207L486.614 666.662L534.667 586.462L626.563 566.045L618.208 471.175L680.029 401L618.208 330.457L626.563 235.588L534.667 215.537L486.213 135.338L401 170.826L315.42 135.338L267.333 215.537L175.438 235.588L183.792 330.457L121.971 401L183.792 471.175L175.438 566.412L267.333 586.462L315.788 666.662ZM365.913 496.505L531.592 330.825L507.933 306.765L365.913 448.786L294.067 377.341L270.408 401L365.913 496.505Z" fill="#1E2D24"/>
</svg>
