<svg width="802" height="802" viewBox="0 0 802 802" fill="none" xmlns="http://www.w3.org/2000/svg">
<path d="M199.106 654C184.537 654 172.383 649.13 162.642 639.389C152.902 629.649 148.021 617.484 148 602.894V199.106C148 184.537 152.881 172.383 162.642 162.642C172.404 152.902 184.559 148.021 199.106 148H401.601V179.625H199.106C194.236 179.625 189.766 181.649 185.697 185.697C181.628 189.745 179.604 194.215 179.625 199.106V602.926C179.625 607.775 181.649 612.234 185.697 616.303C189.745 620.372 194.204 622.396 199.074 622.375H401.601V654H199.106ZM542.111 512.921L519.91 490.151L593.248 416.812H312.197V385.188H593.248L519.878 311.818L542.079 289.111L654 401L542.111 512.921Z" fill="white"/>
</svg>
