<svg width="708" height="802" viewBox="0 0 708 802" fill="none" xmlns="http://www.w3.org/2000/svg">
<path d="M524.694 288.778C576.351 325.684 639.633 347.399 707.98 347.399V215.954C695.044 215.959 682.143 214.609 669.488 211.927V315.393C601.147 315.393 537.872 293.681 486.205 256.778V525.022C486.205 659.214 377.361 767.987 243.107 767.987C193.013 767.987 146.451 752.851 107.773 726.891C151.918 772.005 213.481 799.989 281.587 799.989C415.853 799.989 524.7 691.216 524.7 557.019V288.778H524.694ZM572.18 156.166C545.779 127.341 528.444 90.0895 524.694 48.9054V31.9998H488.218C497.4 84.3427 528.721 129.061 572.18 156.166ZM192.689 623.92C177.938 604.594 169.965 580.947 170.003 556.635C170.003 495.263 219.787 445.5 281.209 445.5C292.653 445.494 304.031 447.25 314.941 450.707V316.323C302.191 314.578 289.326 313.834 276.465 314.107V418.705C265.55 415.247 254.167 413.491 242.717 413.5C181.298 413.5 131.516 463.257 131.516 524.638C131.516 568.04 156.399 605.615 192.689 623.92Z" fill="#FF004F"/>
<path d="M486.205 256.775C537.875 293.679 601.145 315.391 669.489 315.391V211.924C631.34 203.802 597.569 183.879 572.177 156.166C528.716 129.058 497.401 84.34 488.219 31.9998H392.409V557.014C392.191 618.22 342.492 667.778 281.203 667.778C245.09 667.778 213.003 650.574 192.684 623.917C156.399 605.615 131.514 568.037 131.514 524.641C131.514 463.266 181.295 413.503 242.714 413.503C254.482 413.503 265.824 415.334 276.463 418.708V314.11C144.565 316.834 38.4893 424.546 38.4893 557.017C38.4893 623.146 64.9037 683.094 107.776 726.897C146.454 752.851 193.013 767.992 243.11 767.992C377.367 767.992 486.208 659.211 486.208 525.022L486.205 256.775Z" fill="white"/>
<path d="M669.489 211.922V183.951C635.087 184.001 601.366 174.373 572.177 156.166C598.014 184.435 632.035 203.93 669.489 211.927M488.216 31.997C487.341 26.9958 486.67 21.9612 486.202 16.9056V0H353.911V525.02C353.701 586.221 304.003 635.779 242.711 635.779C225.336 635.804 208.197 631.743 192.681 623.923C213 650.574 245.087 667.776 281.2 667.776C342.487 667.776 392.19 618.223 392.406 557.017V31.9998L488.216 31.997ZM276.468 314.107V284.326C265.414 282.816 254.269 282.061 243.112 282.063C108.841 282.063 0 390.842 0 525.02C0 609.144 42.7759 683.282 107.779 726.891C64.9065 683.091 38.492 623.14 38.492 557.014C38.492 424.546 144.565 316.831 276.468 314.107Z" fill="#00F2EA"/>
</svg>
